<!DOCTYPE svg PUBLIC "-//W3C//DTD SVG 20010904//EN" "http://www.w3.org/TR/2001/REC-SVG-20010904/DTD/svg10.dtd">
<svg version="1.0" xmlns="http://www.w3.org/2000/svg" width="320px" height="320px" viewBox="0 0 3200 3200" preserveAspectRatio="xMidYMid meet">
<g id="layer101" fill="#8c0f34" stroke="none">
 <path d="M0 1600 l0 -1600 1600 0 1600 0 0 1600 0 1600 -1600 0 -1600 0 0 -1600z"/>
 </g>
<g id="layer102" fill="#9f3152" stroke="none">
 <path d="M0 1600 l0 -1600 1600 0 1600 0 0 1600 0 1600 -1600 0 -1600 0 0 -1600z m1863 343 c4 -3 2 -12 -4 -19 -12 -15 -19 -225 -7 -218 4 3 5 -1 3 -8 -3 -8 -6 -105 -8 -216 -1 -111 -5 -202 -9 -202 -15 0 -58 64 -59 88 0 15 -2 41 -4 57 -5 49 -5 306 0 356 10 104 58 193 88 162z m160 0 c4 -3 2 -12 -4 -19 -12 -14 -16 -220 -6 -231 4 -3 3 -13 -1 -22 -4 -9 -7 -100 -7 -203 0 -104 -3 -188 -6 -188 -15 0 -51 52 -58 82 -4 18 -8 100 -10 183 -2 82 -5 153 -8 157 -2 5 -13 8 -24 8 -11 0 -18 4 -15 9 3 5 15 7 25 4 22 -6 31 13 31 67 0 47 4 69 23 112 18 40 44 58 60 41z m34 -80 c-4 -3 -7 0 -7 7 0 7 3 10 7 7 3 -4 3 -10 0 -14z m-800 -162 c-34 -39 -28 -136 12 -184 21 -25 9 -30 -28 -11 -42 21 -73 64 -77 109 -3 31 3 42 36 75 25 25 45 37 55 34 14 -6 14 -9 2 -23z m153 9 c-19 -11 -26 -182 -10 -221 11 -25 11 -32 0 -39 -10 -6 -12 -28 -7 -89 3 -45 2 -81 -2 -81 -17 0 -53 50 -60 82 -6 30 -5 238 1 298 4 35 42 70 68 63 15 -4 18 -8 10 -13z m148 -7 c-30 -36 -10 -193 24 -193 6 0 9 -3 6 -6 -3 -3 -25 0 -48 6 -35 10 -44 17 -60 56 -15 34 -17 50 -9 71 5 14 7 28 5 30 -6 7 23 37 48 50 28 15 51 6 34 -14z m507 17 c3 -5 -1 -10 -10 -10 -9 0 -13 5 -10 10 3 6 8 10 10 10 2 0 7 -4 10 -10z m112 -28 c-20 -42 -15 -147 9 -173 19 -22 19 -22 -6 -15 -53 15 -68 28 -78 70 -18 78 -11 99 48 137 33 22 43 14 27 -19z m115 11 c9 -8 21 -12 27 -9 5 4 13 2 16 -4 4 -6 1 -9 -6 -8 -9 2 -12 -8 -10 -34 4 -53 -6 -76 -38 -93 l-28 -14 1 66 c1 36 -4 76 -10 89 -7 12 -10 25 -7 28 7 7 35 -4 55 -21z m151 -26 c-15 -44 -11 -123 8 -159 17 -32 -20 -21 -55 16 -30 33 -34 55 -27 127 2 18 61 68 74 63 12 -4 12 -10 0 -47z m159 25 c-4 -10 -7 -108 -7 -220 1 -168 -2 -202 -13 -197 -7 3 -18 5 -23 5 -5 0 -9 8 -9 18 0 9 -6 29 -14 43 -8 17 -12 45 -8 78 3 31 0 56 -7 65 -9 11 -9 16 0 21 8 5 10 28 6 71 -2 36 0 67 5 70 5 3 7 11 5 17 -2 6 8 21 22 33 28 24 55 22 43 -4z m152 7 c-3 -6 -9 -50 -14 -100 -5 -50 -14 -96 -20 -104 -15 -18 -40 -8 -40 15 0 11 -4 22 -10 25 -15 9 -12 90 4 129 8 19 22 38 31 44 21 11 57 4 49 -9z m138 -7 c-9 -19 -6 -227 3 -242 3 -5 3 -10 -2 -10 -4 0 -8 -37 -7 -83 0 -45 -1 -85 -3 -89 -6 -11 -33 3 -33 17 0 7 -7 18 -15 25 -8 7 -12 16 -9 21 3 5 2 14 -2 21 -4 6 -6 78 -6 160 2 144 2 149 28 177 27 31 60 32 46 3z m-1183 -9 c-6 -15 -9 -47 -8 -71 4 -50 -20 -79 -51 -62 -13 7 -16 21 -15 64 2 45 7 59 26 75 13 11 32 20 41 21 15 0 16 -4 7 -27z m321 23 c0 -3 -5 -8 -12 -12 -7 -4 -8 -3 -4 4 7 12 16 16 16 8z m920 -16 c0 -5 -2 -10 -4 -10 -3 0 -8 5 -11 10 -3 6 -1 10 4 10 6 0 11 -4 11 -10z m-200 -316 c0 -30 -3 -34 -28 -34 -16 0 -32 8 -40 20 -10 17 -9 23 7 39 30 30 61 17 61 -25z"/>
 </g>
<g id="layer103" fill="#ed4e50" stroke="none">
 <path d="M0 1600 l0 -1600 1600 0 1600 0 0 1600 0 1600 -1600 0 -1600 0 0 -1600z m1887 323 c13 -20 17 -47 17 -115 0 -113 20 -121 30 -11 8 87 26 129 63 146 22 10 28 8 43 -10 21 -26 33 -108 25 -166 -5 -37 -2 -44 20 -60 25 -18 27 -18 45 -2 34 31 94 31 172 0 40 -16 73 -24 77 -18 27 41 99 55 139 27 20 -14 24 -14 44 0 30 21 60 20 89 -3 24 -19 25 -19 48 0 30 25 62 24 95 -2 l26 -20 26 20 c47 37 92 23 123 -37 23 -47 34 -92 22 -92 -5 0 -13 15 -16 33 -15 69 -57 116 -77 85 -14 -23 -9 -202 8 -249 38 -108 36 -179 -6 -179 -71 0 -92 58 -89 252 2 141 1 151 -19 171 -34 33 -46 10 -50 -93 -4 -91 -15 -116 -45 -104 -22 8 -39 66 -37 122 3 66 3 70 -21 83 -32 17 -39 -2 -39 -112 0 -67 5 -112 19 -150 38 -112 35 -169 -9 -169 -55 0 -81 44 -89 150 -4 52 -10 74 -18 72 -18 -3 -16 15 1 21 21 8 28 156 8 180 -22 26 -51 21 -63 -10 -17 -44 -7 -153 16 -169 32 -24 8 -27 -38 -5 -49 24 -67 53 -67 110 0 22 -6 44 -15 51 -13 11 -15 7 -15 -30 0 -34 -6 -48 -34 -76 -19 -19 -43 -34 -54 -34 -25 0 -52 36 -52 68 0 28 27 82 40 82 6 0 10 7 10 15 0 21 -56 20 -64 -1 -3 -9 -6 -45 -6 -80 0 -56 3 -68 25 -90 14 -14 25 -27 25 -29 0 -10 -26 -4 -65 15 -50 24 -65 53 -65 123 0 69 -17 87 -42 47 -10 -17 -23 -30 -30 -30 -18 0 -6 -168 16 -234 31 -94 15 -156 -37 -142 -46 11 -60 65 -65 241 -2 88 -9 168 -14 179 -9 17 -11 16 -29 -13 -10 -17 -23 -31 -29 -31 -18 0 -11 -150 10 -218 11 -35 20 -84 20 -108 0 -38 -3 -44 -25 -50 -29 -7 -49 7 -73 50 -12 24 -17 69 -20 193 -4 146 -6 164 -24 180 -19 17 -20 17 -35 -2 -9 -13 -13 -38 -11 -70 3 -59 -5 -75 -37 -75 -28 0 -35 16 -35 85 0 56 -15 79 -47 73 -56 -11 -45 -198 12 -198 8 0 15 -5 15 -11 0 -7 -10 -9 -27 -5 -90 21 -117 53 -115 133 1 47 -2 55 -24 70 -37 24 -44 7 -44 -107 0 -69 5 -109 19 -145 25 -68 35 -115 23 -115 -5 0 -13 16 -16 35 -4 19 -11 35 -17 35 -15 0 -7 -103 9 -108 6 -2 12 3 12 12 0 9 5 16 10 16 13 0 13 -6 0 -31 -13 -24 -52 -25 -72 -1 -30 33 -40 64 -45 138 -4 44 -10 74 -17 74 -8 0 -8 2 0 8 15 9 25 161 13 184 -16 30 -55 23 -69 -12 -17 -40 -7 -136 16 -161 24 -26 13 -33 -27 -16 -48 20 -71 50 -76 99 -9 95 90 164 157 110 23 -18 24 -18 42 0 25 25 61 23 97 -8 17 -14 31 -21 31 -15 0 14 53 41 80 41 12 0 34 -7 50 -15 27 -14 32 -14 55 1 24 16 38 15 78 -1 15 -6 17 -1 17 36 0 70 26 161 50 181 30 25 47 23 67 -9z m424 -392 c-11 -21 -71 -46 -71 -30 0 5 6 9 13 9 8 0 22 9 32 20 23 25 39 26 26 1z m-611 1 c0 -12 -71 -44 -79 -36 -3 4 -1 8 4 11 6 2 21 10 35 17 30 17 40 19 40 8z m1056 -138 c12 -46 -37 -72 -70 -38 -21 20 -20 30 3 53 25 25 59 17 67 -15z"/>
 <path d="M1857 1924 c-4 -4 -7 -54 -7 -111 0 -102 0 -103 21 -91 19 12 20 20 17 101 -4 81 -15 117 -31 101z"/>
 <path d="M2017 1924 c-4 -4 -7 -54 -7 -111 0 -102 0 -103 21 -91 19 12 20 20 17 101 -4 81 -15 117 -31 101z"/>
 <path d="M1861 1696 c-8 -10 -9 -16 -1 -21 5 -3 13 1 16 10 9 22 -1 29 -15 11z"/>
 <path d="M2027 1704 c-4 -4 -7 -14 -7 -23 0 -11 3 -12 11 -4 6 6 10 16 7 23 -2 6 -7 8 -11 4z"/>
 <path d="M2228 1653 c-31 -34 -18 -127 13 -96 6 6 9 34 7 63 -3 51 -4 52 -20 33z"/>
 <path d="M1842 1365 c4 -69 12 -85 30 -67 8 8 8 26 -2 71 -17 81 -33 79 -28 -4z"/>
 <path d="M2002 1365 c4 -69 12 -85 30 -67 8 8 8 26 -2 71 -17 81 -33 79 -28 -4z"/>
 <path d="M2603 1365 c1 -39 6 -70 12 -70 16 0 17 57 1 100 l-15 40 2 -70z"/>
 <path d="M2891 1362 c-1 -55 2 -73 12 -70 18 6 19 47 3 98 l-14 45 -1 -73z"/>
 </g>
<g id="layer104" fill="#fd8a2b" stroke="none">
 <path d="M0 1600 l0 -1600 1600 0 1600 0 0 1600 0 1600 -1600 0 -1600 0 0 -1600z m1887 323 c13 -20 17 -47 17 -115 0 -113 20 -121 30 -11 8 87 26 129 63 146 22 10 28 8 43 -10 21 -26 33 -108 25 -166 -5 -37 -2 -44 20 -60 25 -18 27 -18 45 -2 34 31 94 31 172 0 40 -16 73 -24 77 -18 27 41 99 55 139 27 20 -14 24 -14 44 0 30 21 60 20 89 -3 24 -19 25 -19 48 0 30 25 62 24 95 -2 l26 -20 26 20 c47 37 92 23 123 -37 23 -47 34 -92 22 -92 -5 0 -13 15 -16 33 -15 69 -57 116 -77 85 -14 -23 -9 -202 8 -249 38 -108 36 -179 -6 -179 -71 0 -92 58 -89 252 2 141 1 151 -19 171 -34 33 -46 10 -50 -93 -4 -91 -15 -116 -45 -104 -22 8 -39 66 -37 122 3 66 3 70 -21 83 -32 17 -39 -2 -39 -112 0 -67 5 -112 19 -150 38 -112 35 -169 -9 -169 -55 0 -81 44 -89 150 -4 52 -10 74 -18 72 -18 -3 -16 15 1 21 21 8 28 156 8 180 -22 26 -51 21 -63 -10 -17 -44 -7 -153 16 -169 32 -24 8 -27 -38 -5 -49 24 -67 53 -67 110 0 22 -6 44 -15 51 -13 11 -15 7 -15 -30 0 -34 -6 -48 -34 -76 -19 -19 -43 -34 -54 -34 -25 0 -52 36 -52 68 0 28 27 82 40 82 6 0 10 7 10 15 0 21 -56 20 -64 -1 -3 -9 -6 -45 -6 -80 0 -56 3 -68 25 -90 14 -14 25 -27 25 -29 0 -10 -26 -4 -65 15 -50 24 -65 53 -65 123 0 69 -17 87 -42 47 -10 -17 -23 -30 -30 -30 -18 0 -6 -168 16 -234 31 -94 15 -156 -37 -142 -46 11 -60 65 -65 241 -2 88 -9 168 -14 179 -9 17 -11 16 -29 -13 -10 -17 -23 -31 -29 -31 -18 0 -11 -150 10 -218 11 -35 20 -84 20 -108 0 -38 -3 -44 -25 -50 -29 -7 -49 7 -73 50 -12 24 -17 69 -20 193 -4 146 -6 164 -24 180 -19 17 -20 17 -35 -2 -9 -13 -13 -38 -11 -70 3 -59 -5 -75 -37 -75 -28 0 -35 16 -35 85 0 56 -15 79 -47 73 -56 -11 -45 -198 12 -198 8 0 15 -5 15 -11 0 -7 -10 -9 -27 -5 -90 21 -117 53 -115 133 1 47 -2 55 -24 70 -37 24 -44 7 -44 -107 0 -69 5 -109 19 -145 25 -68 35 -115 23 -115 -5 0 -13 16 -16 35 -4 19 -11 35 -17 35 -15 0 -7 -103 9 -108 6 -2 12 3 12 12 0 9 5 16 10 16 13 0 13 -6 0 -31 -13 -24 -52 -25 -72 -1 -30 33 -40 64 -45 138 -4 44 -10 74 -17 74 -8 0 -8 2 0 8 15 9 25 161 13 184 -16 30 -55 23 -69 -12 -17 -40 -7 -136 16 -161 24 -26 13 -33 -27 -16 -48 20 -71 50 -76 99 -9 95 90 164 157 110 23 -18 24 -18 42 0 25 25 61 23 97 -8 17 -14 31 -21 31 -15 0 14 53 41 80 41 12 0 34 -7 50 -15 27 -14 32 -14 55 1 24 16 38 15 78 -1 15 -6 17 -1 17 36 0 70 26 161 50 181 30 25 47 23 67 -9z m-1247 -138 c7 -8 23 -15 35 -15 31 0 75 -37 75 -63 0 -12 9 -35 20 -52 25 -38 25 -56 0 -88 -11 -14 -20 -36 -20 -50 0 -30 -42 -67 -75 -67 -12 0 -28 -7 -35 -15 -7 -8 -21 -15 -31 -15 -16 0 -19 8 -19 49 0 45 2 49 32 57 21 6 37 21 51 47 19 37 19 37 0 74 -13 25 -30 41 -50 46 -22 7 -33 18 -41 43 -5 19 -6 32 -1 28 5 -3 9 4 9 15 0 25 31 29 50 6z m-97 -16 c-6 -6 -23 -9 -39 -6 -29 4 -28 4 4 6 17 0 32 6 32 13 0 6 3 8 7 5 4 -4 2 -12 -4 -18z m-83 -41 c0 -18 -2 -20 -9 -8 -6 8 -7 18 -5 22 9 14 14 9 14 -14z m85 -28 c-3 -5 -12 -10 -18 -10 -7 0 -6 4 3 10 19 12 23 12 15 0z m-25 -24 c0 -3 -5 -8 -12 -12 -7 -4 -8 -3 -4 4 7 12 16 16 16 8z m-90 -20 c0 -2 -8 -10 -17 -17 -16 -13 -17 -12 -4 4 13 16 21 21 21 13z m67 -23 c-4 -3 -7 0 -7 7 0 7 3 10 7 7 3 -4 3 -10 0 -14z m-51 -18 c1 -14 -2 -25 -6 -25 -6 0 -7 36 -1 48 4 7 6 -1 7 -23z m-26 -25 c0 -11 -2 -20 -4 -20 -2 0 -6 9 -9 20 -3 11 -1 20 4 20 5 0 9 -9 9 -20z m27 -27 c-4 -3 -7 0 -7 7 0 7 3 10 7 7 3 -4 3 -10 0 -14z m84 -30 c13 -16 12 -17 -3 -4 -10 7 -18 15 -18 17 0 8 8 3 21 -13z m1780 -2 c-11 -21 -71 -46 -71 -30 0 5 6 9 13 9 8 0 22 9 32 20 23 25 39 26 26 1z m-611 1 c0 -12 -71 -44 -79 -36 -3 4 -1 8 4 11 6 2 21 10 35 17 30 17 40 19 40 8z m-1143 -29 c-4 -3 -10 -3 -14 0 -3 4 0 7 7 7 7 0 10 -3 7 -7z m-72 -33 c-3 -5 -1 -10 6 -10 7 0 10 -2 7 -5 -3 -3 -13 -2 -22 1 -14 5 -15 9 -4 15 17 11 20 11 13 -1z m52 -16 c-3 -3 -12 -4 -19 -1 -8 3 -5 6 6 6 11 1 17 -2 13 -5z m2219 -60 c12 -46 -37 -72 -70 -38 -21 20 -20 30 3 53 25 25 59 17 67 -15z"/>
 <path d="M1857 1924 c-4 -4 -7 -54 -7 -111 0 -102 0 -103 21 -91 19 12 20 20 17 101 -4 81 -15 117 -31 101z"/>
 <path d="M2017 1924 c-4 -4 -7 -54 -7 -111 0 -102 0 -103 21 -91 19 12 20 20 17 101 -4 81 -15 117 -31 101z"/>
 <path d="M1861 1696 c-8 -10 -9 -16 -1 -21 5 -3 13 1 16 10 9 22 -1 29 -15 11z"/>
 <path d="M2027 1704 c-4 -4 -7 -14 -7 -23 0 -11 3 -12 11 -4 6 6 10 16 7 23 -2 6 -7 8 -11 4z"/>
 <path d="M2228 1653 c-31 -34 -18 -127 13 -96 6 6 9 34 7 63 -3 51 -4 52 -20 33z"/>
 <path d="M1842 1365 c4 -69 12 -85 30 -67 8 8 8 26 -2 71 -17 81 -33 79 -28 -4z"/>
 <path d="M2002 1365 c4 -69 12 -85 30 -67 8 8 8 26 -2 71 -17 81 -33 79 -28 -4z"/>
 <path d="M2603 1365 c1 -39 6 -70 12 -70 16 0 17 57 1 100 l-15 40 2 -70z"/>
 <path d="M2891 1362 c-1 -55 2 -73 12 -70 18 6 19 47 3 98 l-14 45 -1 -73z"/>
 </g>
<g id="layer105" fill="#f06770" stroke="none">
 <path d="M0 1600 l0 -1600 1600 0 1600 0 0 1600 0 1600 -1600 0 -1600 0 0 -1600z m1887 323 c13 -20 17 -47 17 -115 0 -113 20 -121 30 -11 8 87 26 129 63 146 22 10 28 8 43 -10 21 -26 33 -108 25 -166 -5 -37 -2 -44 20 -60 25 -18 27 -18 45 -2 34 31 94 31 172 0 40 -16 73 -24 77 -18 27 41 99 55 139 27 20 -14 24 -14 44 0 30 21 60 20 89 -3 24 -19 25 -19 48 0 30 25 62 24 95 -2 l26 -20 26 20 c47 37 92 23 123 -37 23 -47 34 -92 22 -92 -5 0 -13 15 -16 33 -15 69 -57 116 -77 85 -14 -23 -9 -202 8 -249 38 -108 36 -179 -6 -179 -71 0 -92 58 -89 252 2 141 1 151 -19 171 -34 33 -46 10 -50 -93 -4 -91 -15 -116 -45 -104 -22 8 -39 66 -37 122 3 66 3 70 -21 83 -32 17 -39 -2 -39 -112 0 -67 5 -112 19 -150 38 -112 35 -169 -9 -169 -55 0 -81 44 -89 150 -4 52 -10 74 -18 72 -18 -3 -16 15 1 21 21 8 28 156 8 180 -22 26 -51 21 -63 -10 -17 -44 -7 -153 16 -169 32 -24 8 -27 -38 -5 -49 24 -67 53 -67 110 0 22 -6 44 -15 51 -13 11 -15 7 -15 -30 0 -34 -6 -48 -34 -76 -19 -19 -43 -34 -54 -34 -25 0 -52 36 -52 68 0 28 27 82 40 82 6 0 10 7 10 15 0 21 -56 20 -64 -1 -3 -9 -6 -45 -6 -80 0 -56 3 -68 25 -90 14 -14 25 -27 25 -29 0 -10 -26 -4 -65 15 -50 24 -65 53 -65 123 0 69 -17 87 -42 47 -10 -17 -23 -30 -30 -30 -18 0 -6 -168 16 -234 31 -94 15 -156 -37 -142 -46 11 -60 65 -65 241 -2 88 -9 168 -14 179 -9 17 -11 16 -29 -13 -10 -17 -23 -31 -29 -31 -18 0 -11 -150 10 -218 11 -35 20 -84 20 -108 0 -38 -3 -44 -25 -50 -29 -7 -49 7 -73 50 -12 24 -17 69 -20 193 -4 146 -6 164 -24 180 -19 17 -20 17 -35 -2 -9 -13 -13 -38 -11 -70 3 -59 -5 -75 -37 -75 -28 0 -35 16 -35 85 0 56 -15 79 -47 73 -56 -11 -45 -198 12 -198 8 0 15 -5 15 -11 0 -7 -10 -9 -27 -5 -90 21 -117 53 -115 133 1 47 -2 55 -24 70 -37 24 -44 7 -44 -107 0 -69 5 -109 19 -145 25 -68 35 -115 23 -115 -5 0 -13 16 -16 35 -4 19 -11 35 -17 35 -15 0 -7 -103 9 -108 6 -2 12 3 12 12 0 9 5 16 10 16 13 0 13 -6 0 -31 -13 -24 -52 -25 -72 -1 -30 33 -40 64 -45 138 -4 44 -10 74 -17 74 -8 0 -8 2 0 8 15 9 25 161 13 184 -16 30 -55 23 -69 -12 -17 -40 -7 -136 16 -161 24 -26 13 -33 -27 -16 -48 20 -71 50 -76 99 -9 95 90 164 157 110 23 -18 24 -18 42 0 25 25 61 23 97 -8 17 -14 31 -21 31 -15 0 14 53 41 80 41 12 0 34 -7 50 -15 27 -14 32 -14 55 1 24 16 38 15 78 -1 15 -6 17 -1 17 36 0 70 26 161 50 181 30 25 47 23 67 -9z m-988 -49 c47 -10 81 -46 81 -87 0 -39 -49 -119 -92 -150 -26 -20 -27 -20 -63 2 -20 11 -37 21 -38 21 -1 0 -1 -19 1 -43 3 -33 -1 -47 -17 -61 -12 -11 -21 -31 -21 -46 0 -33 -25 -57 -65 -62 -41 -4 -44 -32 -6 -48 47 -19 52 -30 36 -84 -26 -85 -86 -159 -115 -141 -5 3 -10 35 -10 71 0 50 3 64 15 64 8 0 16 8 16 18 1 9 3 32 5 51 2 26 -2 34 -17 38 -15 4 -19 14 -19 53 0 44 2 48 32 56 21 6 37 21 51 47 19 37 19 37 0 74 -13 25 -30 41 -50 46 -22 7 -33 18 -41 43 -5 19 -6 32 -1 28 5 -3 9 4 9 15 0 25 41 29 59 7 6 -8 27 -16 46 -18 34 -4 35 -3 35 33 0 44 1 44 71 63 66 18 60 17 98 10z m-356 -105 c-6 -6 -23 -9 -39 -6 -29 4 -28 4 4 6 17 0 32 6 32 13 0 6 3 8 7 5 4 -4 2 -12 -4 -18z m-83 -41 c0 -18 -2 -20 -9 -8 -6 8 -7 18 -5 22 9 14 14 9 14 -14z m85 -28 c-3 -5 -12 -10 -18 -10 -7 0 -6 4 3 10 19 12 23 12 15 0z m-25 -24 c0 -3 -5 -8 -12 -12 -7 -4 -8 -3 -4 4 7 12 16 16 16 8z m-90 -20 c0 -2 -8 -10 -17 -17 -16 -13 -17 -12 -4 4 13 16 21 21 21 13z m67 -23 c-4 -3 -7 0 -7 7 0 7 3 10 7 7 3 -4 3 -10 0 -14z m-51 -18 c1 -14 -2 -25 -6 -25 -6 0 -7 36 -1 48 4 7 6 -1 7 -23z m-26 -25 c0 -11 -2 -20 -4 -20 -2 0 -6 9 -9 20 -3 11 -1 20 4 20 5 0 9 -9 9 -20z m27 -27 c-4 -3 -7 0 -7 7 0 7 3 10 7 7 3 -4 3 -10 0 -14z m84 -30 c13 -16 12 -17 -3 -4 -10 7 -18 15 -18 17 0 8 8 3 21 -13z m1780 -2 c-11 -21 -71 -46 -71 -30 0 5 6 9 13 9 8 0 22 9 32 20 23 25 39 26 26 1z m-611 1 c0 -12 -71 -44 -79 -36 -3 4 -1 8 4 11 6 2 21 10 35 17 30 17 40 19 40 8z m-1143 -29 c-4 -3 -10 -3 -14 0 -3 4 0 7 7 7 7 0 10 -3 7 -7z m-72 -33 c-3 -5 -1 -10 6 -10 7 0 10 -2 7 -5 -3 -3 -13 -2 -22 1 -14 5 -15 9 -4 15 17 11 20 11 13 -1z m52 -16 c-3 -3 -12 -4 -19 -1 -8 3 -5 6 6 6 11 1 17 -2 13 -5z m30 -31 c-4 -3 -10 -3 -14 0 -3 4 0 7 7 7 7 0 10 -3 7 -7z m2189 -29 c12 -46 -37 -72 -70 -38 -21 20 -20 30 3 53 25 25 59 17 67 -15z"/>
 <path d="M1857 1924 c-4 -4 -7 -54 -7 -111 0 -102 0 -103 21 -91 19 12 20 20 17 101 -4 81 -15 117 -31 101z"/>
 <path d="M2017 1924 c-4 -4 -7 -54 -7 -111 0 -102 0 -103 21 -91 19 12 20 20 17 101 -4 81 -15 117 -31 101z"/>
 <path d="M1861 1696 c-8 -10 -9 -16 -1 -21 5 -3 13 1 16 10 9 22 -1 29 -15 11z"/>
 <path d="M2027 1704 c-4 -4 -7 -14 -7 -23 0 -11 3 -12 11 -4 6 6 10 16 7 23 -2 6 -7 8 -11 4z"/>
 <path d="M2228 1653 c-31 -34 -18 -127 13 -96 6 6 9 34 7 63 -3 51 -4 52 -20 33z"/>
 <path d="M1842 1365 c4 -69 12 -85 30 -67 8 8 8 26 -2 71 -17 81 -33 79 -28 -4z"/>
 <path d="M2002 1365 c4 -69 12 -85 30 -67 8 8 8 26 -2 71 -17 81 -33 79 -28 -4z"/>
 <path d="M2603 1365 c1 -39 6 -70 12 -70 16 0 17 57 1 100 l-15 40 2 -70z"/>
 <path d="M2891 1362 c-1 -55 2 -73 12 -70 18 6 19 47 3 98 l-14 45 -1 -73z"/>
 <path d="M783 1754 c-25 -13 -33 -23 -33 -44 0 -36 8 -42 39 -25 41 21 71 54 65 70 -8 19 -31 19 -71 -1z"/>
 </g>
<g id="layer106" fill="#fea633" stroke="none">
 <path d="M0 1600 l0 -1600 1600 0 1600 0 0 1600 0 1600 -1600 0 -1600 0 0 -1600z m1887 323 c13 -20 17 -47 17 -115 0 -113 20 -121 30 -11 8 87 26 129 63 146 22 10 28 8 43 -10 21 -26 33 -108 25 -166 -5 -37 -2 -44 20 -60 25 -18 27 -18 45 -2 34 31 94 31 172 0 40 -16 73 -24 77 -18 27 41 99 55 139 27 20 -14 24 -14 44 0 30 21 60 20 89 -3 24 -19 25 -19 48 0 30 25 62 24 95 -2 l26 -20 26 20 c47 37 92 23 123 -37 23 -47 34 -92 22 -92 -5 0 -13 15 -16 33 -15 69 -57 116 -77 85 -14 -23 -9 -202 8 -249 38 -108 36 -179 -6 -179 -71 0 -92 58 -89 252 2 141 1 151 -19 171 -34 33 -46 10 -50 -93 -4 -91 -15 -116 -45 -104 -22 8 -39 66 -37 122 3 66 3 70 -21 83 -32 17 -39 -2 -39 -112 0 -67 5 -112 19 -150 38 -112 35 -169 -9 -169 -55 0 -81 44 -89 150 -4 52 -10 74 -18 72 -18 -3 -16 15 1 21 21 8 28 156 8 180 -22 26 -51 21 -63 -10 -17 -44 -7 -153 16 -169 32 -24 8 -27 -38 -5 -49 24 -67 53 -67 110 0 22 -6 44 -15 51 -13 11 -15 7 -15 -30 0 -34 -6 -48 -34 -76 -19 -19 -43 -34 -54 -34 -25 0 -52 36 -52 68 0 28 27 82 40 82 6 0 10 7 10 15 0 21 -56 20 -64 -1 -3 -9 -6 -45 -6 -80 0 -56 3 -68 25 -90 14 -14 25 -27 25 -29 0 -10 -26 -4 -65 15 -50 24 -65 53 -65 123 0 69 -17 87 -42 47 -10 -17 -23 -30 -30 -30 -18 0 -6 -168 16 -234 31 -94 15 -156 -37 -142 -46 11 -60 65 -65 241 -2 88 -9 168 -14 179 -9 17 -11 16 -29 -13 -10 -17 -23 -31 -29 -31 -18 0 -11 -150 10 -218 11 -35 20 -84 20 -108 0 -38 -3 -44 -25 -50 -29 -7 -49 7 -73 50 -12 24 -17 69 -20 193 -4 146 -6 164 -24 180 -19 17 -20 17 -35 -2 -9 -13 -13 -38 -11 -70 3 -59 -5 -75 -37 -75 -28 0 -35 16 -35 85 0 56 -15 79 -47 73 -56 -11 -45 -198 12 -198 8 0 15 -5 15 -11 0 -7 -10 -9 -27 -5 -90 21 -117 53 -115 133 1 47 -2 55 -24 70 -37 24 -44 7 -44 -107 0 -69 5 -109 19 -145 25 -68 35 -115 23 -115 -5 0 -13 16 -16 35 -4 19 -11 35 -17 35 -15 0 -7 -103 9 -108 6 -2 12 3 12 12 0 9 5 16 10 16 13 0 13 -6 0 -31 -13 -24 -52 -25 -72 -1 -30 33 -40 64 -45 138 -4 44 -10 74 -17 74 -8 0 -8 2 0 8 15 9 25 161 13 184 -16 30 -55 23 -69 -12 -17 -40 -7 -136 16 -161 24 -26 13 -33 -27 -16 -48 20 -71 50 -76 99 -9 95 90 164 157 110 23 -18 24 -18 42 0 25 25 61 23 97 -8 17 -14 31 -21 31 -15 0 14 53 41 80 41 12 0 34 -7 50 -15 27 -14 32 -14 55 1 24 16 38 15 78 -1 15 -6 17 -1 17 36 0 70 26 161 50 181 30 25 47 23 67 -9z m-988 -49 c47 -10 81 -46 81 -87 0 -39 -49 -119 -92 -150 -26 -20 -27 -20 -63 2 -20 11 -37 21 -38 21 -1 0 -1 -19 1 -43 3 -33 -1 -47 -17 -61 -12 -11 -21 -31 -21 -46 0 -33 -25 -57 -65 -62 -41 -4 -44 -32 -6 -48 47 -19 52 -30 36 -84 -26 -85 -86 -159 -115 -141 -16 10 -13 135 4 135 14 0 25 38 22 79 -1 19 -7 24 -36 28 -19 2 -38 10 -43 18 -4 8 -20 15 -35 15 -43 0 -72 26 -72 64 0 20 -8 40 -20 51 -26 23 -26 65 0 93 11 12 20 34 20 50 0 34 34 62 75 62 14 0 25 4 25 10 0 12 47 25 75 21 11 -2 27 -9 35 -16 8 -7 30 -15 48 -17 31 -4 32 -4 32 33 0 44 1 44 71 63 66 18 60 17 98 10z m1412 -343 c-11 -21 -71 -46 -71 -30 0 5 6 9 13 9 8 0 22 9 32 20 23 25 39 26 26 1z m-611 1 c0 -12 -71 -44 -79 -36 -3 4 -1 8 4 11 6 2 21 10 35 17 30 17 40 19 40 8z m1056 -138 c12 -46 -37 -72 -70 -38 -21 20 -20 30 3 53 25 25 59 17 67 -15z"/>
 <path d="M1857 1924 c-4 -4 -7 -54 -7 -111 0 -102 0 -103 21 -91 19 12 20 20 17 101 -4 81 -15 117 -31 101z"/>
 <path d="M2017 1924 c-4 -4 -7 -54 -7 -111 0 -102 0 -103 21 -91 19 12 20 20 17 101 -4 81 -15 117 -31 101z"/>
 <path d="M1861 1696 c-8 -10 -9 -16 -1 -21 5 -3 13 1 16 10 9 22 -1 29 -15 11z"/>
 <path d="M2027 1704 c-4 -4 -7 -14 -7 -23 0 -11 3 -12 11 -4 6 6 10 16 7 23 -2 6 -7 8 -11 4z"/>
 <path d="M2228 1653 c-31 -34 -18 -127 13 -96 6 6 9 34 7 63 -3 51 -4 52 -20 33z"/>
 <path d="M1842 1365 c4 -69 12 -85 30 -67 8 8 8 26 -2 71 -17 81 -33 79 -28 -4z"/>
 <path d="M2002 1365 c4 -69 12 -85 30 -67 8 8 8 26 -2 71 -17 81 -33 79 -28 -4z"/>
 <path d="M2603 1365 c1 -39 6 -70 12 -70 16 0 17 57 1 100 l-15 40 2 -70z"/>
 <path d="M2891 1362 c-1 -55 2 -73 12 -70 18 6 19 47 3 98 l-14 45 -1 -73z"/>
 <path d="M783 1754 c-25 -13 -33 -23 -33 -44 0 -36 8 -42 39 -25 41 21 71 54 65 70 -8 19 -31 19 -71 -1z"/>
 <path d="M555 1688 c-32 -17 -45 -39 -45 -79 0 -47 26 -78 71 -85 28 -5 41 -1 67 21 45 38 45 92 1 129 -33 28 -62 32 -94 14z"/>
 </g>
<g id="layer107" fill="#fdc43c" stroke="none">
 <path d="M0 1600 l0 -1600 1600 0 1600 0 0 1600 0 1600 -1600 0 -1600 0 0 -1600z m659 410 c32 -40 61 -107 61 -141 0 -23 12 -23 87 -4 68 18 113 12 148 -21 46 -42 30 -107 -47 -190 l-40 -44 42 -47 c75 -85 91 -157 43 -191 -42 -29 -82 -34 -146 -17 -32 8 -62 15 -67 15 -5 0 -17 -24 -25 -54 -29 -101 -94 -164 -142 -138 -25 14 -74 67 -76 83 -2 8 -7 20 -11 28 -5 8 -12 31 -16 52 -7 36 -6 38 31 55 48 21 54 54 11 54 -44 0 -72 26 -72 65 0 25 -6 37 -21 46 -17 9 -20 18 -17 54 l3 42 -44 -21 -43 -21 -44 50 c-24 27 -51 69 -60 92 -15 40 -15 44 0 68 24 36 61 48 132 42 90 -9 111 -21 110 -65 l-1 -37 39 3 c22 2 46 10 53 18 14 13 34 18 61 15 8 -1 12 15 12 54 0 43 -3 55 -16 55 -12 0 -15 13 -13 70 2 85 18 92 68 30z m1228 -87 c13 -20 17 -47 17 -115 0 -113 20 -121 30 -11 8 87 26 129 63 146 22 10 28 8 43 -10 21 -26 33 -108 25 -166 -5 -37 -2 -44 20 -60 25 -18 27 -18 45 -2 34 31 94 31 172 0 40 -16 73 -24 77 -18 27 41 99 55 139 27 20 -14 24 -14 44 0 30 21 60 20 89 -3 24 -19 25 -19 48 0 30 25 62 24 95 -2 l26 -20 26 20 c47 37 92 23 123 -37 23 -47 34 -92 22 -92 -5 0 -13 15 -16 33 -15 69 -57 116 -77 85 -14 -23 -9 -202 8 -249 38 -108 36 -179 -6 -179 -71 0 -92 58 -89 252 2 141 1 151 -19 171 -34 33 -46 10 -50 -93 -4 -91 -15 -116 -45 -104 -22 8 -39 66 -37 122 3 66 3 70 -21 83 -32 17 -39 -2 -39 -112 0 -67 5 -112 19 -150 38 -112 35 -169 -9 -169 -55 0 -81 44 -89 150 -4 52 -10 74 -18 72 -18 -3 -16 15 1 21 21 8 28 156 8 180 -22 26 -51 21 -63 -10 -17 -44 -7 -153 16 -169 32 -24 8 -27 -38 -5 -49 24 -67 53 -67 110 0 22 -6 44 -15 51 -13 11 -15 7 -15 -30 0 -34 -6 -48 -34 -76 -19 -19 -43 -34 -54 -34 -25 0 -52 36 -52 68 0 28 27 82 40 82 6 0 10 7 10 15 0 21 -56 20 -64 -1 -3 -9 -6 -45 -6 -80 0 -56 3 -68 25 -90 14 -14 25 -27 25 -29 0 -10 -26 -4 -65 15 -50 24 -65 53 -65 123 0 69 -17 87 -42 47 -10 -17 -23 -30 -30 -30 -18 0 -6 -168 16 -234 31 -94 15 -156 -37 -142 -46 11 -60 65 -65 241 -2 88 -9 168 -14 179 -9 17 -11 16 -29 -13 -10 -17 -23 -31 -29 -31 -18 0 -11 -150 10 -218 11 -35 20 -84 20 -108 0 -38 -3 -44 -25 -50 -29 -7 -49 7 -73 50 -12 24 -17 69 -20 193 -4 146 -6 164 -24 180 -19 17 -20 17 -35 -2 -9 -13 -13 -38 -11 -70 3 -59 -5 -75 -37 -75 -28 0 -35 16 -35 85 0 56 -15 79 -47 73 -56 -11 -45 -198 12 -198 8 0 15 -5 15 -11 0 -7 -10 -9 -27 -5 -90 21 -117 53 -115 133 1 47 -2 55 -24 70 -37 24 -44 7 -44 -107 0 -69 5 -109 19 -145 25 -68 35 -115 23 -115 -5 0 -13 16 -16 35 -4 19 -11 35 -17 35 -15 0 -7 -103 9 -108 6 -2 12 3 12 12 0 9 5 16 10 16 13 0 13 -6 0 -31 -13 -24 -52 -25 -72 -1 -30 33 -40 64 -45 138 -4 44 -10 74 -17 74 -8 0 -8 2 0 8 15 9 25 161 13 184 -16 30 -55 23 -69 -12 -17 -40 -7 -136 16 -161 24 -26 13 -33 -27 -16 -48 20 -71 50 -76 99 -9 95 90 164 157 110 23 -18 24 -18 42 0 25 25 61 23 97 -8 17 -14 31 -21 31 -15 0 14 53 41 80 41 12 0 34 -7 50 -15 27 -14 32 -14 55 1 24 16 38 15 78 -1 15 -6 17 -1 17 36 0 70 26 161 50 181 30 25 47 23 67 -9z m424 -392 c-11 -21 -71 -46 -71 -30 0 5 6 9 13 9 8 0 22 9 32 20 23 25 39 26 26 1z m-611 1 c0 -12 -71 -44 -79 -36 -3 4 -1 8 4 11 6 2 21 10 35 17 30 17 40 19 40 8z m1056 -138 c12 -46 -37 -72 -70 -38 -21 20 -20 30 3 53 25 25 59 17 67 -15z"/>
 <path d="M337 1763 c-16 -15 -4 -33 39 -62 25 -17 49 -31 55 -31 5 0 9 15 9 34 0 29 -5 36 -34 50 -36 17 -59 20 -69 9z"/>
 <path d="M783 1753 c-26 -13 -33 -23 -33 -45 0 -34 7 -35 57 -6 44 26 53 36 46 55 -7 17 -30 16 -70 -4z"/>
 <path d="M555 1688 c-32 -17 -45 -39 -45 -79 0 -47 26 -78 71 -85 28 -5 41 -1 67 21 45 38 45 92 1 129 -33 28 -62 32 -94 14z"/>
 <path d="M756 1543 c-3 -3 -6 -18 -6 -32 0 -44 90 -82 104 -45 3 9 6 17 6 19 0 2 -17 14 -37 26 -21 13 -43 27 -49 31 -6 4 -14 5 -18 1z"/>
 <path d="M562 1368 c3 -49 5 -53 28 -53 23 0 25 4 28 46 3 41 0 47 -20 53 -38 10 -39 8 -36 -46z"/>
 <path d="M1857 1924 c-4 -4 -7 -54 -7 -111 0 -102 0 -103 21 -91 19 12 20 20 17 101 -4 81 -15 117 -31 101z"/>
 <path d="M2017 1924 c-4 -4 -7 -54 -7 -111 0 -102 0 -103 21 -91 19 12 20 20 17 101 -4 81 -15 117 -31 101z"/>
 <path d="M1861 1696 c-8 -10 -9 -16 -1 -21 5 -3 13 1 16 10 9 22 -1 29 -15 11z"/>
 <path d="M2027 1704 c-4 -4 -7 -14 -7 -23 0 -11 3 -12 11 -4 6 6 10 16 7 23 -2 6 -7 8 -11 4z"/>
 <path d="M2228 1653 c-31 -34 -18 -127 13 -96 6 6 9 34 7 63 -3 51 -4 52 -20 33z"/>
 <path d="M1842 1365 c4 -69 12 -85 30 -67 8 8 8 26 -2 71 -17 81 -33 79 -28 -4z"/>
 <path d="M2002 1365 c4 -69 12 -85 30 -67 8 8 8 26 -2 71 -17 81 -33 79 -28 -4z"/>
 <path d="M2603 1365 c1 -39 6 -70 12 -70 16 0 17 57 1 100 l-15 40 2 -70z"/>
 <path d="M2891 1362 c-1 -55 2 -73 12 -70 18 6 19 47 3 98 l-14 45 -1 -73z"/>
 </g>
<g id="layer108" fill="#f8d180" stroke="none">
 <path d="M0 1600 l0 -1600 1600 0 1600 0 0 1600 0 1600 -1600 0 -1600 0 0 -1600z m659 410 c32 -40 61 -107 61 -141 0 -23 12 -23 87 -4 68 18 113 12 148 -21 46 -42 30 -107 -47 -190 l-40 -44 42 -47 c75 -85 91 -157 43 -191 -42 -29 -82 -34 -146 -17 -32 8 -62 15 -67 15 -5 0 -17 -24 -25 -54 -18 -63 -65 -131 -95 -141 -52 -16 -117 46 -145 139 -20 66 -20 66 -72 50 -91 -28 -160 -14 -190 37 -15 25 -14 30 6 72 12 25 40 66 62 91 l41 46 -46 52 c-26 29 -54 72 -63 96 -15 41 -15 44 4 70 27 36 79 48 151 35 31 -5 64 -13 74 -17 13 -6 19 3 33 51 26 90 77 152 126 153 18 0 35 -12 58 -40z m1228 -87 c13 -20 17 -47 17 -115 0 -113 20 -121 30 -11 8 87 26 129 63 146 22 10 28 8 43 -10 21 -26 33 -108 25 -166 -5 -37 -2 -44 20 -60 25 -18 27 -18 45 -2 34 31 94 31 172 0 40 -16 73 -24 77 -18 27 41 99 55 139 27 20 -14 24 -14 44 0 30 21 60 20 89 -3 24 -19 25 -19 48 0 30 25 62 24 95 -2 l26 -20 26 20 c47 37 92 23 123 -37 23 -47 34 -92 22 -92 -5 0 -13 15 -16 33 -15 69 -57 116 -77 85 -14 -23 -9 -202 8 -249 38 -108 36 -179 -6 -179 -71 0 -92 58 -89 252 2 141 1 151 -19 171 -34 33 -46 10 -50 -93 -4 -91 -15 -116 -45 -104 -22 8 -39 66 -37 122 3 66 3 70 -21 83 -32 17 -39 -2 -39 -112 0 -67 5 -112 19 -150 38 -112 35 -169 -9 -169 -55 0 -81 44 -89 150 -4 52 -10 74 -18 72 -18 -3 -16 15 1 21 21 8 28 156 8 180 -22 26 -51 21 -63 -10 -17 -44 -7 -153 16 -169 32 -24 8 -27 -38 -5 -49 24 -67 53 -67 110 0 22 -6 44 -15 51 -13 11 -15 7 -15 -30 0 -34 -6 -48 -34 -76 -19 -19 -43 -34 -54 -34 -25 0 -52 36 -52 68 0 28 27 82 40 82 6 0 10 7 10 15 0 21 -56 20 -64 -1 -3 -9 -6 -45 -6 -80 0 -56 3 -68 25 -90 14 -14 25 -27 25 -29 0 -10 -26 -4 -65 15 -50 24 -65 53 -65 123 0 69 -17 87 -42 47 -10 -17 -23 -30 -30 -30 -18 0 -6 -168 16 -234 31 -94 15 -156 -37 -142 -46 11 -60 65 -65 241 -2 88 -9 168 -14 179 -9 17 -11 16 -29 -13 -10 -17 -23 -31 -29 -31 -18 0 -11 -150 10 -218 11 -35 20 -84 20 -108 0 -38 -3 -44 -25 -50 -29 -7 -49 7 -73 50 -12 24 -17 69 -20 193 -4 146 -6 164 -24 180 -19 17 -20 17 -35 -2 -9 -13 -13 -38 -11 -70 3 -59 -5 -75 -37 -75 -28 0 -35 16 -35 85 0 56 -15 79 -47 73 -56 -11 -45 -198 12 -198 8 0 15 -5 15 -11 0 -7 -10 -9 -27 -5 -90 21 -117 53 -115 133 1 47 -2 55 -24 70 -37 24 -44 7 -44 -107 0 -69 5 -109 19 -145 25 -68 35 -115 23 -115 -5 0 -13 16 -16 35 -4 19 -11 35 -17 35 -15 0 -7 -103 9 -108 6 -2 12 3 12 12 0 9 5 16 10 16 13 0 13 -6 0 -31 -13 -24 -52 -25 -72 -1 -30 33 -40 64 -45 138 -4 44 -10 74 -17 74 -8 0 -8 2 0 8 15 9 25 161 13 184 -16 30 -55 23 -69 -12 -17 -40 -7 -136 16 -161 24 -26 13 -33 -27 -16 -48 20 -71 50 -76 99 -9 95 90 164 157 110 23 -18 24 -18 42 0 25 25 61 23 97 -8 17 -14 31 -21 31 -15 0 14 53 41 80 41 12 0 34 -7 50 -15 27 -14 32 -14 55 1 24 16 38 15 78 -1 15 -6 17 -1 17 36 0 70 26 161 50 181 30 25 47 23 67 -9z m424 -392 c-11 -21 -71 -46 -71 -30 0 5 6 9 13 9 8 0 22 9 32 20 23 25 39 26 26 1z m-611 1 c0 -12 -71 -44 -79 -36 -3 4 -1 8 4 11 6 2 21 10 35 17 30 17 40 19 40 8z m1056 -138 c12 -46 -37 -72 -70 -38 -21 20 -20 30 3 53 25 25 59 17 67 -15z"/>
 <path d="M566 1895 c-3 -9 -6 -34 -6 -55 0 -37 2 -39 30 -38 31 1 31 1 28 52 -3 43 -6 51 -24 54 -13 2 -24 -4 -28 -13z"/>
 <path d="M337 1763 c-16 -15 -5 -34 34 -58 65 -41 69 -42 69 -3 0 29 -5 37 -35 51 -38 18 -58 21 -68 10z"/>
 <path d="M783 1753 c-26 -13 -33 -23 -33 -45 0 -34 7 -35 57 -6 44 26 53 36 46 55 -7 17 -30 16 -70 -4z"/>
 <path d="M555 1688 c-32 -17 -45 -39 -45 -79 0 -47 26 -78 71 -85 28 -5 41 -1 67 21 45 38 45 92 1 129 -33 28 -62 32 -94 14z"/>
 <path d="M377 1520 c-49 -31 -57 -49 -32 -70 11 -9 22 -7 55 11 34 19 40 28 40 56 0 18 -4 33 -8 33 -4 0 -29 -13 -55 -30z"/>
 <path d="M750 1513 c0 -30 43 -63 82 -63 34 0 18 42 -27 67 -51 29 -55 29 -55 -4z"/>
 <path d="M560 1376 c0 -46 19 -72 45 -62 10 4 15 19 15 50 0 37 -3 45 -22 50 -37 9 -38 8 -38 -38z"/>
 <path d="M1857 1924 c-4 -4 -7 -54 -7 -111 0 -102 0 -103 21 -91 19 12 20 20 17 101 -4 81 -15 117 -31 101z"/>
 <path d="M2017 1924 c-4 -4 -7 -54 -7 -111 0 -102 0 -103 21 -91 19 12 20 20 17 101 -4 81 -15 117 -31 101z"/>
 <path d="M1861 1696 c-8 -10 -9 -16 -1 -21 5 -3 13 1 16 10 9 22 -1 29 -15 11z"/>
 <path d="M2027 1704 c-4 -4 -7 -14 -7 -23 0 -11 3 -12 11 -4 6 6 10 16 7 23 -2 6 -7 8 -11 4z"/>
 <path d="M2228 1653 c-31 -34 -18 -127 13 -96 6 6 9 34 7 63 -3 51 -4 52 -20 33z"/>
 <path d="M1842 1365 c4 -69 12 -85 30 -67 8 8 8 26 -2 71 -17 81 -33 79 -28 -4z"/>
 <path d="M2002 1365 c4 -69 12 -85 30 -67 8 8 8 26 -2 71 -17 81 -33 79 -28 -4z"/>
 <path d="M2603 1365 c1 -39 6 -70 12 -70 16 0 17 57 1 100 l-15 40 2 -70z"/>
 <path d="M2891 1362 c-1 -55 2 -73 12 -70 18 6 19 47 3 98 l-14 45 -1 -73z"/>
 </g>
<g id="layer109" fill="#e9d3d6" stroke="none">
 <path d="M0 1600 l0 -1600 1600 0 1600 0 0 1600 0 1600 -1600 0 -1600 0 0 -1600z m652 423 c31 -33 63 -95 73 -140 5 -27 10 -32 28 -28 103 23 120 25 163 14 46 -12 74 -39 74 -72 0 -30 -30 -88 -72 -139 l-39 -47 46 -56 c24 -30 47 -68 51 -83 3 -15 8 -33 10 -40 9 -30 -25 -69 -69 -80 -42 -11 -125 -4 -169 13 -13 5 -19 0 -24 -22 -22 -102 -77 -173 -132 -173 -48 0 -112 82 -127 164 -7 33 -10 37 -29 31 -39 -13 -161 -17 -189 -6 -65 25 -58 102 19 197 l45 55 -44 48 c-74 84 -86 168 -27 199 25 13 153 12 195 -2 17 -6 22 1 38 53 22 76 79 141 124 141 19 0 38 -9 55 -27z m1235 -100 c13 -20 17 -47 17 -115 0 -113 20 -121 30 -11 8 87 26 129 63 146 22 10 28 8 43 -10 21 -26 33 -108 25 -166 -5 -37 -2 -44 20 -60 25 -18 27 -18 45 -2 34 31 94 31 172 0 40 -16 73 -24 77 -18 27 41 99 55 139 27 20 -14 24 -14 44 0 30 21 60 20 89 -3 24 -19 25 -19 48 0 30 25 62 24 95 -2 l26 -20 26 20 c47 37 92 23 123 -37 23 -47 34 -92 22 -92 -5 0 -13 15 -16 33 -15 69 -57 116 -77 85 -14 -23 -9 -202 8 -249 38 -108 36 -179 -6 -179 -71 0 -92 58 -89 252 2 141 1 151 -19 171 -34 33 -46 10 -50 -93 -4 -91 -15 -116 -45 -104 -22 8 -39 66 -37 122 3 66 3 70 -21 83 -32 17 -39 -2 -39 -112 0 -67 5 -112 19 -150 38 -112 35 -169 -9 -169 -55 0 -81 44 -89 150 -4 52 -10 74 -18 72 -18 -3 -16 15 1 21 21 8 28 156 8 180 -22 26 -51 21 -63 -10 -17 -44 -7 -153 16 -169 32 -24 8 -27 -38 -5 -49 24 -67 53 -67 110 0 22 -6 44 -15 51 -13 11 -15 7 -15 -30 0 -34 -6 -48 -34 -76 -19 -19 -43 -34 -54 -34 -25 0 -52 36 -52 68 0 28 27 82 40 82 6 0 10 7 10 15 0 21 -56 20 -64 -1 -3 -9 -6 -45 -6 -80 0 -56 3 -68 25 -90 14 -14 25 -27 25 -29 0 -10 -26 -4 -65 15 -50 24 -65 53 -65 123 0 69 -17 87 -42 47 -10 -17 -23 -30 -30 -30 -18 0 -6 -168 16 -234 31 -94 15 -156 -37 -142 -46 11 -60 65 -65 241 -2 88 -9 168 -14 179 -9 17 -11 16 -29 -13 -10 -17 -23 -31 -29 -31 -18 0 -11 -150 10 -218 11 -35 20 -84 20 -108 0 -38 -3 -44 -25 -50 -29 -7 -49 7 -73 50 -12 24 -17 69 -20 193 -4 146 -6 164 -24 180 -19 17 -20 17 -35 -2 -9 -13 -13 -38 -11 -70 3 -59 -5 -75 -37 -75 -28 0 -35 16 -35 85 0 56 -15 79 -47 73 -56 -11 -45 -198 12 -198 8 0 15 -5 15 -11 0 -7 -10 -9 -27 -5 -90 21 -117 53 -115 133 1 47 -2 55 -24 70 -37 24 -44 7 -44 -107 0 -69 5 -109 19 -145 25 -68 35 -115 23 -115 -5 0 -13 16 -16 35 -4 19 -11 35 -17 35 -15 0 -7 -103 9 -108 6 -2 12 3 12 12 0 9 5 16 10 16 13 0 13 -6 0 -31 -13 -24 -52 -25 -72 -1 -30 33 -40 64 -45 138 -4 44 -10 74 -17 74 -8 0 -8 2 0 8 15 9 25 161 13 184 -16 30 -55 23 -69 -12 -17 -40 -7 -136 16 -161 24 -26 13 -33 -27 -16 -48 20 -71 50 -76 99 -9 95 90 164 157 110 23 -18 24 -18 42 0 25 25 61 23 97 -8 17 -14 31 -21 31 -15 0 14 53 41 80 41 12 0 34 -7 50 -15 27 -14 32 -14 55 1 24 16 38 15 78 -1 15 -6 17 -1 17 36 0 70 26 161 50 181 30 25 47 23 67 -9z m424 -392 c-11 -21 -71 -46 -71 -30 0 5 6 9 13 9 8 0 22 9 32 20 23 25 39 26 26 1z m-611 1 c0 -12 -71 -44 -79 -36 -3 4 -1 8 4 11 6 2 21 10 35 17 30 17 40 19 40 8z m1056 -138 c12 -46 -37 -72 -70 -38 -21 20 -20 30 3 53 25 25 59 17 67 -15z"/>
 <path d="M577 1893 c-10 -10 -8 -83 2 -83 5 0 11 20 13 45 3 43 -1 53 -15 38z"/>
 <path d="M344 1755 c-3 -8 -3 -19 1 -25 9 -15 81 -50 89 -43 16 16 2 41 -33 61 -46 26 -50 26 -57 7z"/>
 <path d="M555 1688 c-32 -17 -45 -39 -45 -79 0 -41 24 -76 55 -81 18 -3 20 3 23 76 3 86 -2 100 -33 84z"/>
 <path d="M387 1519 c-42 -22 -56 -44 -39 -61 8 -8 21 -6 48 8 42 23 43 23 35 51 l-6 21 -38 -19z"/>
 <path d="M572 1368 c2 -23 8 -43 13 -45 6 -2 9 15 7 42 -2 25 -8 45 -14 45 -5 0 -8 -19 -6 -42z"/>
 <path d="M1857 1924 c-4 -4 -7 -54 -7 -111 0 -102 0 -103 21 -91 19 12 20 20 17 101 -4 81 -15 117 -31 101z"/>
 <path d="M2017 1924 c-4 -4 -7 -54 -7 -111 0 -102 0 -103 21 -91 19 12 20 20 17 101 -4 81 -15 117 -31 101z"/>
 <path d="M1861 1696 c-8 -10 -9 -16 -1 -21 5 -3 13 1 16 10 9 22 -1 29 -15 11z"/>
 <path d="M2027 1704 c-4 -4 -7 -14 -7 -23 0 -11 3 -12 11 -4 6 6 10 16 7 23 -2 6 -7 8 -11 4z"/>
 <path d="M2228 1653 c-31 -34 -18 -127 13 -96 6 6 9 34 7 63 -3 51 -4 52 -20 33z"/>
 <path d="M1842 1365 c4 -69 12 -85 30 -67 8 8 8 26 -2 71 -17 81 -33 79 -28 -4z"/>
 <path d="M2002 1365 c4 -69 12 -85 30 -67 8 8 8 26 -2 71 -17 81 -33 79 -28 -4z"/>
 <path d="M2603 1365 c1 -39 6 -70 12 -70 16 0 17 57 1 100 l-15 40 2 -70z"/>
 <path d="M2891 1362 c-1 -55 2 -73 12 -70 18 6 19 47 3 98 l-14 45 -1 -73z"/>
 </g>
<g id="layer110" fill="#fbeac2" stroke="none">
 <path d="M0 1600 l0 -1600 1600 0 1600 0 0 1600 0 1600 -1600 0 -1600 0 0 -1600z m652 423 c29 -31 62 -93 72 -135 7 -32 24 -35 107 -17 61 13 121 -2 145 -35 18 -27 18 -80 -1 -96 -8 -7 -15 -17 -15 -23 0 -6 -18 -32 -40 -59 l-41 -47 46 -56 c24 -30 47 -68 51 -83 3 -15 8 -33 10 -40 9 -30 -25 -69 -69 -80 -42 -11 -125 -4 -169 13 -11 5 -18 0 -22 -17 -23 -84 -32 -106 -55 -131 -34 -37 -75 -59 -97 -50 -42 16 -97 101 -109 167 -7 35 -9 37 -34 29 -14 -4 -64 -8 -109 -8 -76 0 -86 2 -103 24 -37 45 -18 105 62 195 l31 36 -44 49 c-75 83 -87 168 -28 198 29 15 138 17 173 4 30 -12 44 -3 52 34 10 43 51 110 81 134 37 29 75 27 106 -6z m1226 -81 c21 -16 24 -27 26 -113 2 -52 7 -92 12 -89 5 3 8 18 6 34 -1 16 3 34 9 42 6 7 8 17 5 22 -10 16 20 81 47 102 25 20 28 20 51 5 30 -20 33 -32 32 -128 -1 -69 1 -80 22 -100 19 -18 26 -19 40 -9 32 23 67 33 92 27 14 -3 32 -7 40 -9 22 -4 51 -15 84 -32 27 -14 30 -13 50 10 32 36 79 42 117 15 28 -20 32 -20 40 -6 15 26 65 31 95 9 26 -18 28 -18 65 0 29 14 44 16 63 8 14 -5 26 -14 26 -20 0 -15 21 -12 40 5 10 9 31 17 49 20 24 3 37 -3 61 -27 16 -16 33 -42 36 -56 3 -15 7 -37 10 -49 2 -13 0 -23 -6 -23 -5 0 -10 4 -10 9 0 21 -46 111 -59 116 -22 9 -27 -8 -30 -99 -2 -67 3 -101 22 -163 13 -43 23 -91 22 -108 -1 -16 -3 -38 -4 -47 -3 -47 -91 -16 -112 41 -11 28 -16 291 -6 308 3 5 -7 25 -23 44 l-28 34 -12 -30 c-6 -16 -10 -60 -8 -97 2 -58 -1 -71 -19 -89 l-21 -21 -20 20 c-17 17 -21 34 -21 89 0 37 -3 78 -6 90 -7 21 -33 39 -43 29 -2 -3 -7 -45 -9 -93 -5 -75 -2 -100 20 -169 36 -112 28 -183 -18 -184 -6 0 -25 12 -43 28 -36 30 -54 95 -45 163 5 32 3 38 -13 37 -87 -2 -144 43 -149 117 -4 61 -19 76 -23 23 -1 -23 -6 -46 -9 -52 -4 -6 -8 -19 -8 -28 -2 -23 -33 -56 -53 -57 -45 -3 -59 -2 -82 2 -68 11 -92 46 -94 139 0 31 -7 63 -13 70 -10 9 -13 8 -13 -9 0 -12 -11 -30 -25 -41 -22 -18 -25 -27 -25 -86 0 -41 8 -90 21 -129 36 -107 30 -177 -16 -177 -19 0 -75 55 -77 77 -1 17 -2 24 -8 48 -2 6 -2 73 -1 150 2 113 0 144 -13 160 -15 20 -15 20 -16 1 0 -11 -10 -30 -21 -42 -19 -20 -21 -34 -21 -108 1 -53 7 -98 17 -122 33 -79 23 -165 -18 -164 -36 1 -93 82 -81 114 3 8 1 16 -4 20 -5 3 -7 65 -4 138 4 132 4 133 -21 156 l-25 24 -11 -21 c-7 -11 -11 -51 -10 -88 2 -92 3 -89 -29 -102 -28 -12 -40 -13 -97 -10 -67 3 -117 57 -110 116 6 44 -5 82 -27 94 -30 16 -38 -3 -38 -92 0 -52 8 -101 25 -159 14 -46 25 -92 25 -102 0 -30 -17 -20 -24 15 -5 25 -9 29 -16 17 -14 -21 -12 -67 2 -76 6 -4 14 -2 16 4 6 20 22 14 22 -8 0 -12 -10 -25 -24 -31 -20 -9 -29 -7 -55 12 -41 30 -49 57 -50 168 -1 43 -3 51 -14 42 -8 -6 -16 -9 -19 -6 -2 3 -19 7 -37 9 -21 2 -44 15 -62 35 -24 27 -29 41 -29 85 0 56 8 71 57 104 37 26 50 27 91 6 29 -14 35 -14 62 0 35 17 65 14 91 -9 16 -15 19 -15 43 1 37 24 99 23 127 -1 16 -15 23 -17 27 -7 8 24 52 34 83 18 l28 -14 -6 44 c-4 28 -1 49 7 58 6 9 9 19 6 24 -7 12 40 109 56 115 20 8 21 8 46 -11z m879 -534 c19 -16 16 -32 -12 -58 -30 -28 -54 -20 -69 23 -18 50 36 73 81 35z"/>
 <path d="M577 1893 c-10 -10 -8 -83 2 -83 5 0 11 20 13 45 3 43 -1 53 -15 38z"/>
 <path d="M344 1755 c-3 -8 -3 -19 1 -25 9 -15 81 -50 89 -43 16 16 2 41 -33 61 -46 26 -50 26 -57 7z"/>
 <path d="M555 1688 c-32 -17 -45 -39 -45 -79 0 -41 24 -76 55 -81 18 -3 20 3 23 76 3 86 -2 100 -33 84z"/>
 <path d="M387 1519 c-42 -22 -56 -44 -39 -61 8 -8 21 -6 48 8 42 23 43 23 35 51 l-6 21 -38 -19z"/>
 <path d="M572 1368 c2 -23 8 -43 13 -45 6 -2 9 15 7 42 -2 25 -8 45 -14 45 -5 0 -8 -19 -6 -42z"/>
 <path d="M1857 1859 c-9 -123 -9 -129 11 -129 15 0 17 10 15 92 -3 115 -19 138 -26 37z"/>
 <path d="M2017 1909 c-4 -13 -7 -63 -7 -112 0 -81 1 -86 18 -76 14 9 17 24 15 87 -1 43 -6 88 -11 101 l-9 25 -6 -25z"/>
 <path d="M1258 1679 c-21 -36 -23 -79 -6 -125 24 -67 68 -54 69 20 0 28 2 61 3 72 4 33 -11 64 -31 64 -10 0 -26 -14 -35 -31z"/>
 <path d="M1561 1691 c-6 -10 -7 -21 -4 -25 4 -3 0 -17 -7 -31 -9 -17 -10 -28 -3 -37 6 -7 14 -28 18 -45 7 -33 16 -38 60 -34 45 3 48 10 20 39 -24 24 -27 32 -22 73 5 37 2 50 -12 63 -23 21 -38 20 -50 -3z"/>
 <path d="M2189 1693 c-9 -10 -14 -41 -14 -80 0 -60 2 -67 29 -88 25 -20 33 -22 50 -12 20 11 20 12 -5 15 -15 2 -37 14 -49 27 -18 19 -21 31 -16 58 4 19 15 42 26 52 11 10 20 24 20 32 0 18 -25 16 -41 -4z"/>
 <path d="M2454 1698 c-4 -6 -8 -41 -9 -77 -3 -86 20 -130 58 -110 15 8 18 21 17 67 -1 31 1 67 5 78 11 34 -53 72 -71 42z"/>
 <path d="M2021 1684 c0 -11 3 -14 6 -6 3 7 2 16 -1 19 -3 4 -6 -2 -5 -13z"/>
 <path d="M1860 1680 c0 -7 3 -10 7 -7 3 4 3 10 0 14 -4 3 -7 0 -7 -7z"/>
 <path d="M2227 1643 c-21 -40 -22 -83 -3 -83 10 0 17 16 21 44 10 62 2 78 -18 39z"/>
 <path d="M1847 1404 c-12 -12 -8 -79 7 -99 12 -17 13 -17 17 11 5 33 -13 98 -24 88z"/>
 <path d="M2007 1404 c-12 -13 -7 -80 7 -100 14 -18 15 -18 22 -1 8 21 -18 111 -29 101z"/>
 <path d="M2605 1360 c3 -30 5 -59 5 -63 0 -5 5 -5 10 -2 12 8 13 58 1 71 -5 5 -12 18 -15 29 -3 11 -3 -5 -1 -35z"/>
 <path d="M2893 1350 c1 -34 6 -59 12 -57 15 5 18 56 5 72 -7 8 -9 19 -6 24 4 5 2 12 -4 16 -6 4 -9 -17 -7 -55z"/>
 </g>
<g id="layer111" fill="#ffffff" stroke="none">
 <path d="M0 1600 l0 -1600 1600 0 1600 0 0 1600 0 1600 -1600 0 -1600 0 0 -1600z m655 428 c31 -24 75 -110 75 -147 0 -19 4 -22 23 -17 46 14 149 17 182 6 20 -6 40 -20 45 -30 15 -27 12 -81 -5 -114 -14 -26 -27 -42 -79 -98 -18 -20 -17 -21 22 -62 49 -51 69 -90 70 -138 1 -40 -24 -74 -63 -84 -19 -5 -122 0 -169 8 -15 2 -22 -6 -32 -40 -7 -24 -26 -64 -41 -88 -43 -69 -116 -80 -161 -25 -21 26 -62 120 -62 143 0 18 -4 20 -32 13 -108 -23 -206 -10 -222 30 -20 53 15 140 81 201 27 25 27 25 6 39 -11 8 -37 39 -57 69 -55 83 -48 155 16 174 37 11 125 9 176 -2 29 -7 32 -5 32 16 1 33 37 108 67 141 34 34 88 37 128 5z m1223 -86 c21 -16 24 -27 26 -113 2 -52 7 -92 12 -89 5 3 8 18 6 34 -1 16 3 34 9 42 6 7 8 17 5 22 -11 19 15 79 44 100 28 21 32 21 54 7 30 -20 33 -33 32 -128 -1 -69 1 -80 22 -100 19 -18 26 -19 40 -9 32 23 67 33 92 27 14 -3 32 -7 40 -9 22 -4 51 -15 84 -32 27 -14 30 -13 50 10 32 36 79 42 117 15 28 -20 32 -20 40 -6 15 27 65 31 97 8 26 -18 30 -19 44 -5 22 22 87 22 103 1 15 -21 24 -21 45 -2 10 9 31 17 49 20 24 3 37 -3 61 -27 16 -16 33 -42 36 -56 3 -15 7 -37 10 -49 2 -13 0 -23 -6 -23 -5 0 -10 4 -10 9 0 21 -46 111 -59 116 -22 8 -24 1 -29 -93 -3 -74 0 -102 20 -168 14 -43 24 -92 23 -109 -1 -16 -3 -38 -4 -47 -3 -47 -91 -16 -112 41 -6 14 -11 95 -11 180 -1 145 -3 155 -24 180 l-22 26 -12 -30 c-7 -17 -10 -58 -7 -97 4 -60 2 -69 -18 -88 l-23 -22 -20 20 c-17 17 -21 34 -21 89 0 37 -3 78 -6 90 -7 21 -33 39 -43 29 -2 -3 -7 -45 -10 -94 -4 -74 -1 -100 17 -154 52 -157 28 -236 -54 -174 -38 30 -57 94 -48 163 5 36 3 42 -13 41 -95 -2 -143 36 -149 119 -4 59 -19 73 -23 21 -1 -23 -6 -46 -9 -52 -4 -6 -8 -19 -8 -28 -2 -23 -33 -56 -53 -57 -45 -3 -59 -2 -82 2 -68 11 -92 46 -94 139 0 31 -7 63 -13 70 -10 9 -13 8 -13 -9 0 -12 -11 -30 -25 -41 -22 -18 -25 -27 -25 -86 0 -41 8 -90 21 -129 36 -107 30 -177 -16 -177 -19 0 -75 55 -77 77 -1 17 -2 24 -8 48 -2 6 -2 73 -1 150 2 113 0 144 -13 160 -15 20 -15 20 -16 1 0 -11 -10 -30 -21 -42 -19 -20 -21 -34 -21 -108 1 -53 7 -98 17 -122 33 -79 23 -165 -18 -164 -36 1 -93 82 -81 114 3 8 1 16 -4 20 -5 3 -7 65 -4 138 4 132 4 133 -21 156 l-25 24 -11 -21 c-7 -11 -11 -51 -10 -88 1 -38 1 -73 0 -79 -1 -14 -49 -35 -77 -35 -123 1 -157 31 -158 138 -1 60 -17 84 -44 67 -29 -19 -28 -138 3 -242 14 -48 25 -95 25 -104 0 -30 -17 -20 -24 15 -5 25 -9 29 -16 17 -14 -21 -12 -67 2 -76 6 -4 14 -2 16 4 6 20 22 14 22 -8 0 -12 -10 -25 -24 -31 -20 -9 -29 -7 -55 12 -41 30 -49 57 -50 168 -1 43 -3 51 -14 42 -8 -6 -16 -9 -19 -6 -2 3 -19 7 -37 9 -21 2 -44 15 -62 35 -24 27 -29 41 -29 85 0 56 8 71 57 104 37 26 50 27 91 6 29 -14 35 -14 64 0 40 21 50 20 81 -4 24 -19 28 -20 49 -6 44 28 91 30 123 5 20 -17 30 -20 33 -10 8 23 52 33 83 17 l28 -14 -6 44 c-3 27 -1 49 6 58 6 7 9 20 5 29 -3 8 -1 18 5 22 6 3 11 17 11 30 0 14 11 32 26 44 32 25 33 25 62 3z m879 -534 c19 -16 16 -32 -11 -57 -31 -30 -62 -21 -71 20 -9 40 10 62 44 54 14 -4 32 -11 38 -17z"/>
 <path d="M1857 1860 c-9 -124 -9 -130 11 -130 15 0 17 10 15 77 -1 43 -6 89 -11 103 -8 21 -11 12 -15 -50z"/>
 <path d="M2017 1909 c-4 -13 -7 -63 -7 -112 0 -81 1 -86 18 -76 14 9 17 24 15 87 -1 43 -6 88 -11 101 l-9 25 -6 -25z"/>
 <path d="M1258 1679 c-21 -36 -23 -79 -6 -125 24 -67 68 -54 69 20 0 28 2 61 3 72 4 33 -11 64 -31 64 -10 0 -26 -14 -35 -31z"/>
 <path d="M1561 1691 c-6 -10 -7 -21 -4 -25 4 -3 0 -17 -7 -31 -9 -17 -10 -28 -3 -37 6 -7 14 -28 18 -45 7 -33 16 -38 60 -34 45 3 48 10 20 39 -24 23 -27 33 -23 74 4 36 1 51 -12 63 -22 20 -37 19 -49 -4z"/>
 <path d="M2191 1696 c-7 -8 -15 -30 -18 -50 -13 -84 26 -148 78 -127 l24 10 -26 0 c-14 1 -36 12 -48 25 -19 20 -22 32 -17 59 4 19 15 42 26 52 11 10 20 24 20 32 0 17 -24 17 -39 -1z"/>
 <path d="M2455 1688 c-4 -13 -8 -48 -10 -78 -3 -77 21 -118 58 -99 15 8 18 21 17 67 -1 31 1 67 5 78 5 16 1 26 -16 38 -32 22 -45 20 -54 -6z"/>
 <path d="M2021 1684 c0 -11 3 -14 6 -6 3 7 2 16 -1 19 -3 4 -6 -2 -5 -13z"/>
 <path d="M1860 1680 c0 -7 3 -10 7 -7 3 4 3 10 0 14 -4 3 -7 0 -7 -7z"/>
 <path d="M2226 1638 c-20 -29 -21 -78 -2 -78 10 0 17 16 22 45 8 55 2 65 -20 33z"/>
 <path d="M1847 1404 c-12 -12 -8 -79 7 -99 12 -17 13 -17 17 11 5 33 -13 98 -24 88z"/>
 <path d="M2007 1404 c-10 -11 -8 -77 3 -94 7 -12 12 -12 21 -3 10 10 9 22 -2 58 -8 25 -18 43 -22 39z"/>
 <path d="M2605 1360 c3 -30 5 -59 5 -63 0 -5 5 -5 10 -2 12 8 13 58 1 71 -5 5 -12 18 -15 29 -3 11 -3 -5 -1 -35z"/>
 <path d="M2894 1350 c1 -35 5 -59 11 -57 15 5 18 56 5 72 -7 8 -9 19 -6 24 4 5 2 12 -2 15 -5 3 -9 -21 -8 -54z"/>
 </g>

</svg>